# xmcd
#
# Track frame offsets: 
#        150
#        18407
#        29507
#        44357
#        75407
#        103007
#        120257
#        152414
#        171110
#        193160
#        214985
#        225785
#        241985
#        274385
#
# Disc length: 4090 seconds
#
# Revision: 0
# Processed by: cddbd v1.5.2PL0 Copyright (c) Steve Scherf et al.
# Submitted via: ExactAudioCopyFreeDBPlugin 1.0
#
DISCID=ad0ff80e
DTITLE=The Janitors - 15 Years Of Fuzz and Folköl
DYEAR=2019
DGENRE=Garage Psych
TTITLE0=Strong
TTITLE1=Stumble
TTITLE2=Firefly
TTITLE3=City
TTITLE4=In Love With The Riot (Feedback)
TTITLE5=Hospital
TTITLE6=I See It Now
TTITLE7=Oh Lord (alt version)
TTITLE8=Epileptic City
TTITLE9=Terminal Beach
TTITLE10=You In A Ditch
TTITLE11=Nevereverism
TTITLE12=Here They Come (demo)
TTITLE13=Fire Hole
EXTD=
EXTT0=
EXTT1=
EXTT2=
EXTT3=
EXTT4=
EXTT5=
EXTT6=
EXTT7=
EXTT8=
EXTT9=
EXTT10=
EXTT11=
EXTT12=
EXTT13=
PLAYORDER=
